<?xml version="1.0" encoding="utf-8"?>
<!-- Generator: Adobe Illustrator 26.0.1, SVG Export Plug-In . SVG Version: 6.00 Build 0)  -->
<svg version="1.1" id="Layer_1" xmlns="http://www.w3.org/2000/svg" xmlns:xlink="http://www.w3.org/1999/xlink" x="0px" y="0px"
	 viewBox="0 0 32 32" style="enable-background:new 0 0 32 32;" xml:space="preserve">
<path class="st0" d="M16,4.1l10.3,6V22l-10.3,6L5.7,22V10L16,4.1 M16,0L2.1,8v16L16,32l13.9-8V8L16,0L16,0z" fill="#AFB1B3"/>
<path class="st0" d="M23.8,11.5c-0.5-0.8-1.6-1.1-2.4-0.7L16,14l-5.4-3.1c-0.8-0.5-1.9-0.2-2.4,0.6c-0.5,0.8-0.2,1.9,0.6,2.4
	l5.4,3.1l0,6.2c0,1,0.8,1.8,1.7,1.8c0,0,0,0,0,0c1,0,1.8-0.8,1.8-1.7l0-6.2l5.4-3.1C24,13.4,24.3,12.4,23.8,11.5z" fill="#AFB1B3"/>
</svg>
