<?xml version="1.0" encoding="UTF-8" standalone="no"?>
<svg
   xmlns:dc="http://purl.org/dc/elements/1.1/"
   xmlns:cc="http://creativecommons.org/ns#"
   xmlns:rdf="http://www.w3.org/1999/02/22-rdf-syntax-ns#"
   xmlns:svg="http://www.w3.org/2000/svg"
   xmlns="http://www.w3.org/2000/svg"
   xmlns:sodipodi="http://sodipodi.sourceforge.net/DTD/sodipodi-0.dtd"
   xmlns:inkscape="http://www.inkscape.org/namespaces/inkscape"
   width="100"
   height="75"
   viewBox="0 0 100 75"
   version="1.1"
   id="svg21"
   sodipodi:docname="logo-white-cutout.svg"
   inkscape:version="0.92.4 (5da689c313, 2019-01-14)">
  <metadata
     id="metadata25">
    <rdf:RDF>
      <cc:Work
         rdf:about="">
        <dc:format>image/svg+xml</dc:format>
        <dc:type
           rdf:resource="http://purl.org/dc/dcmitype/StillImage" />
        <dc:title></dc:title>
      </cc:Work>
    </rdf:RDF>
  </metadata>
  <sodipodi:namedview
     pagecolor="#ffffff"
     bordercolor="#666666"
     borderopacity="1"
     objecttolerance="10"
     gridtolerance="10"
     guidetolerance="10"
     inkscape:pageopacity="0"
     inkscape:pageshadow="2"
     inkscape:window-width="1366"
     inkscape:window-height="705"
     id="namedview23"
     showgrid="false"
     inkscape:zoom="3.4143672"
     inkscape:cx="46.85935"
     inkscape:cy="46.365432"
     inkscape:window-x="-8"
     inkscape:window-y="-8"
     inkscape:window-maximized="1"
     inkscape:current-layer="svg21" />
  <defs
     id="defs5">
    <clipPath
       id="clip-logo-color">
      <rect
         width="1046"
         height="782"
         id="rect2"
         x="0"
         y="0" />
    </clipPath>
  </defs>
  <rect
     style="fill:none;stroke:none;stroke-width:0.09575499"
     y="0"
     x="0"
     id="rect7"
     height="75"
     width="100" />
  <g
     id="g820"
     transform="matrix(1.0003146,0,0,1.0003146,0.11912428,-707.13988)">
    <path
       inkscape:connector-curvature="0"
       id="Path_21"
       d="m 61.501777,714.76955 a 29.764245,29.764245 0 0 0 -28.505542,26.88628 h 1.950512 a 27.633078,27.633078 0 0 1 7.927894,-16.68708 20.62457,20.62457 0 0 0 3.271765,2.46045 c -2.152991,4.16743 -3.470254,9.05087 -3.830814,14.22663 h 0.480439 c 0.36977,-5.19432 1.715276,-9.98094 3.770502,-13.97623 2.63566,1.53719 5.745741,2.67172 9.124231,3.32927 -0.570363,4.05803 -0.876897,8.60222 -0.886935,13.32383 h -2.998962 v 0.47801 h 2.998962 c 0.0096,4.7216 0.316572,9.26579 0.886935,13.32382 -3.378394,0.65746 -6.488849,1.79199 -9.124604,3.32928 -1.671021,-3.24788 -2.872589,-7.01946 -3.46241,-11.1078 h -0.486786 c 0.580689,4.10755 1.778813,7.96966 3.529442,11.35819 a 20.62457,20.62457 0 0 0 -3.271765,2.46045 27.633078,27.633078 0 0 1 -7.982231,-17.26032 h -1.952938 a 29.764245,29.764245 0 0 0 59.412344,-2.388 29.732314,29.732314 0 0 0 -2.434684,-11.8024 29.764245,29.764245 0 0 0 -28.415355,-17.95438 z m 1.115299,1.93408 c 0.551338,0 1.099524,0.017 1.645031,0.0491 1.290631,1.20296 2.50683,3.78671 3.479774,7.4848 a 58.4826,58.4826 0 0 1 1.262623,6.34094 36.017208,36.017208 0 0 1 -6.387802,0.56465 36.017208,36.017208 0 0 1 -6.387989,-0.56465 58.485851,58.485851 0 0 1 1.262996,-6.34131 c 0.973232,-3.69713 2.189426,-6.28119 3.479961,-7.48406 0.545794,-0.0316 1.094067,-0.0495 1.645406,-0.0495 z m -2.353647,0.0995 c -1.221032,1.38996 -2.328123,3.87182 -3.233859,7.31264 a 58.910134,58.910134 0 0 0 -1.270466,6.37436 c -3.325717,-0.64905 -6.383467,-1.76662 -8.97037,-3.27924 2.42935,-4.54464 5.789179,-8.01626 9.668529,-9.82668 a 27.878489,27.878489 0 0 1 3.806166,-0.58108 z m 4.708039,7.4e-4 a 27.815105,27.815105 0 0 1 3.83903,0.59584 c 3.865201,1.81482 7.212643,5.27954 9.634919,9.811 -2.586903,1.51281 -5.644654,2.63038 -8.970371,3.27923 a 58.914245,58.914245 0 0 0 -1.270277,-6.37417 c -0.905641,-3.44054 -2.012555,-5.92174 -3.233301,-7.3119 z m -10.521853,1.11231 c -2.318069,1.43882 -4.448531,3.49903 -6.287345,6.12322 a 28.910707,28.910707 0 0 0 -1.79217,2.92091 20.146654,20.146654 0 0 1 -3.155436,-2.37232 27.664532,27.664532 0 0 1 11.234951,-6.67181 z m 16.370586,0.0217 a 27.836807,27.836807 0 0 1 11.204701,6.64548 20.152964,20.152964 0 0 1 -3.160851,2.37699 28.911185,28.911185 0 0 0 -1.79217,-2.92091 c -1.829446,-2.6108 -3.947283,-4.6637 -6.25168,-6.10156 z m 11.543977,7.02659 a 27.820268,27.820268 0 0 1 5.798316,8.56443 27.622371,27.622371 0 0 1 2.274289,10.80381 h -7.41702 c -0.0347,-6.16291 -1.410894,-12.02386 -3.931831,-16.9035 a 20.616635,20.616635 0 0 0 3.276246,-2.46474 z m -3.69656,2.71514 c 2.404015,4.67313 3.838283,10.42843 3.874133,16.6531 H 70.430136 c -0.0096,-4.72161 -0.316386,-9.26589 -0.886749,-13.32383 3.378298,-0.65755 6.488571,-1.79208 9.124231,-3.32927 z m -22.506685,3.41647 a 36.463671,36.463671 0 0 0 6.456143,0.57044 36.46434,36.46434 0 0 0 6.456142,-0.57044 c 0.565296,4.02983 0.86895,8.54408 0.879467,13.23663 h -4.169904 c -0.09696,0.16757 -0.207204,0.3275 -0.32994,0.47801 h 4.499283 c -0.0096,4.69254 -0.313692,9.20651 -0.879466,13.23662 a 36.812333,36.812333 0 0 0 -12.912285,0 c -0.564723,-4.03011 -0.868494,-8.54408 -0.878533,-13.23662 h 4.580508 C 59.741453,744.6593 59.63535,744.49907 59.542304,744.3327 H 55.28184 c 0.01004,-4.69255 0.313797,-9.20651 0.879093,-13.23663 z m -23.318931,12.47181 a 29.764245,29.764245 0 0 0 0.02259,1.43441 h 1.941361 a 27.633078,27.633078 0 0 1 -0.0086,-0.19158 h 7.41702 c 0.0069,1.22489 0.06771,2.43754 0.179068,3.63326 h 0.481932 c -0.113151,-1.18973 -0.175711,-2.4021 -0.182802,-3.63326 h 7.200235 v -0.47801 h -7.200235 c 0.0015,-0.25585 0.0062,-0.5106 0.01232,-0.76482 h -0.478385 c -0.006,0.25447 -0.01069,0.50926 -0.01214,0.76482 h -7.41702 a 27.633078,27.633078 0 0 1 0.04276,-0.76482 z m 29.534013,0.76482 0.04967,0.0278 -0.08813,0.45019 h 0.633739 l -0.08813,-0.45038 0.0493,-0.0276 z m 8.054121,0.47801 h 12.111615 c -0.03585,6.22476 -1.469649,11.98044 -3.87376,16.6531 -2.635755,-1.53729 -5.745545,-2.67182 -9.124417,-3.32928 0.570363,-4.05803 0.877002,-8.60222 0.886562,-13.32382 z m 12.589627,0 h 7.417206 a 27.632887,27.632887 0 0 1 -8.077273,19.36394 20.623614,20.623614 0 0 0 -3.271764,-2.46045 c 2.520937,-4.87963 3.897127,-10.74068 3.931831,-16.90349 z m -19.541707,13.1089 a 36.411663,36.411663 0 0 1 5.527008,0.55457 58.4826,58.4826 0 0 1 -1.262622,6.34075 c -0.973232,3.69761 -2.189239,6.28117 -3.479775,7.48442 -0.545793,0.0317 -1.094349,0.0497 -1.645591,0.0497 -0.551243,0 -1.099326,-0.018 -1.645406,-0.0497 -1.290631,-1.20325 -2.506634,-3.78681 -3.479961,-7.48442 a 58.485755,58.485755 0 0 1 -1.262622,-6.34075 36.411663,36.411663 0 0 1 7.248969,-0.55457 z m 5.99699,0.64289 c 3.325908,0.64904 6.383747,1.76661 8.970745,3.27923 -2.429446,4.54388 -5.789553,8.01608 -9.668903,9.8265 a 27.877629,27.877629 0 0 1 -3.80598,0.58127 c 1.220937,-1.38996 2.328029,-3.87192 3.233861,-7.31264 a 58.91587,58.91587 0 0 0 1.270277,-6.37436 z m -13.715942,3.7e-4 a 58.943212,58.943212 0 0 0 1.270466,6.37417 c 0.905736,3.44111 2.012827,5.92268 3.233859,7.31265 a 27.875908,27.875908 0 0 1 -3.806166,-0.58127 c -3.87935,-1.81042 -7.239457,-5.28262 -9.668903,-9.8265 2.586999,-1.51291 5.644836,-2.63038 8.970744,-3.27905 z m -9.389004,3.52926 a 28.88891,28.88891 0 0 0 1.79217,2.92091 c 1.838814,2.62428 3.969276,4.6844 6.287345,6.12322 a 27.665679,27.665679 0 0 1 -11.236257,-6.6705 20.160707,20.160707 0 0 1 3.156742,-2.37363 z m 32.493951,0 a 20.160803,20.160803 0 0 1 3.156742,2.37363 27.666061,27.666061 0 0 1 -11.236257,6.6705 c 2.318165,-1.43882 4.448434,-3.49894 6.287345,-6.12322 a 28.889388,28.889388 0 0 0 1.79217,-2.92091 z"
       style="fill:#ffffff;stroke-width:0.0956023" />
    <path
       id="Path_22"
       data-name="Path 22"
       d="m 49.188241,742.61185 h -23.71587 c -0.839388,-4.57935 -5.0587,-7.97992 -9.944933,-7.46653 -4.314914,0.45305 -7.7107076,3.94627 -8.1086043,8.26663 -0.5026769,5.45889 3.7661563,10.06434 9.0822183,10.06434 4.463384,0 8.187954,-3.24618 8.970937,-7.51807 h 15.721032 v 3.44168 h 3.34608 v -3.44197 h 2.963671 v 5.06693 h 3.346081 v -8.41301 z m -32.715966,7.49628 a 5.8017208,5.8017208 0 1 1 5.801721,-5.80163 5.8082218,5.8082218 0 0 1 -5.801721,5.80163 z"
       inkscape:connector-curvature="0"
       style="fill:#ffffff;stroke-width:0.0956023" />
    <path
       id="Path_24"
       data-name="Path 24"
       d="m 65.310994,742.53929 a 2.6565966,2.6565966 0 1 0 -3.956309,2.31664 l -1.356788,6.93374 h 5.313097 l -1.356787,-6.93374 a 2.6549713,2.6549713 0 0 0 1.356787,-2.31664 z"
       inkscape:connector-curvature="0"
       style="fill:#ffffff;stroke-width:0.0956023" />
  </g>
</svg>
